{"title":"Timothy Bradley vs. Devon Alexander(HBO)(720PMKV)-desspratt-","uid":9929508,"size":1366083719,"categoryP":"video","categoryS":"hd___tv_shows","magnet":"?xt=urn:btih:0998ee41a01ee3e57bd16d2935a3b7afb83f2804&amp;dn=Timothy+Bradley+vs.+Devon+Alexander%28HBO%29%28720PMKV%29-desspratt-&amp;tr=udp%3A%2F%2Ftracker.openbittorrent.com%3A80&amp;tr=udp%3A%2F%2Fopen.demonii.com%3A1337&amp;tr=udp%3A%2F%2Ftracker.coppersurfer.tk%3A6969&amp;tr=udp%3A%2F%2Fexodus.desync.com%3A6969","seeders":1,"leechers":1,"uploader":"desspratt","files":1,"time":1397089327,"description":"Jan 2011  Silverdome, Pontiac, Michigan, United States \nThis is a mkv version of the HBO broadcast of the fight between Timothy Bradley and Devon Alexander.\nDoes NOT include fighter entrances \nIncludes fighter introductions \nIncludes all in between rounds \nIncludes post fight interview(s)\n\n\n\n [URL=https://imageshack.com/i/mabx67j][IMG]http://imagizer.imageshack.us/v2/xq90/802/bx67.jpg[/IMG][/URL]\n[URL=https://imageshack.com/i/12qdq3j][IMG]http://imagizer.imageshack.us/v2/xq90/38/qdq3.jpg[/IMG][/URL]\n[URL=https://imageshack.com/i/5n7ixdj][IMG]http://imagizer.imageshack.us/v2/xq90/203/7ixd.jpg[/IMG][/URL]\n______________________________________________________________________________________________________________________________________________________________________________________________________\n\n Format                                   : Matroska\nFormat version                           : Version 2\nFile size                                : 1.27 GiB\nDuration                                 : 57mn 36s\nOverall bit rate mode                    : Variable\nOverall bit rate                         : 3 162 Kbps\nEncoded date                             : UTC 2011-01-30 05:54:38\nWriting application                      : mkvmerge v4.4.0 ('Die Wiederkehr') built on Oct 31 2010 21:52:48\nWriting library                          : libebml v1.0.0 + libmatroska v1.0.0\n\nVideo\nID                                       : 1\nFormat                                   : AVC\nFormat/Info                              : Advanced Video Codec\nFormat profile                           : &lt;a class=&quot;__cf_email__&quot; href=&quot;/cdn-cgi/l/email-protection&quot; data-cfemail=&quot;a4e9c5cdcae4e8908a94&quot;&gt;[email&amp;#160;protected]&lt;/a&gt;&lt;script cf-hash='f9e31' type=&quot;text/javascript&quot;&gt;\n/* &lt;![CDATA[ */!function(){try{var t=&quot;currentScript&quot;in document?document.currentScript:function(){for(var t=document.getElementsByTagName(&quot;script&quot;),e=t.length;e--;)if(t[e].getAttribute(&quot;cf-hash&quot;))return t[e]}();if(t&amp;&amp;t.previousSibling){var e,r,n,i,c=t.previousSibling,a=c.getAttribute(&quot;data-cfemail&quot;);if(a){for(e=&quot;&quot;,r=parseInt(a.substr(0,2),16),n=2;a.length-n;n+=2)i=parseInt(a.substr(n,2),16)^r,e+=String.fromCharCode(i);e=document.createTextNode(e),c.parentNode.replaceChild(e,c)}}}catch(u){}}();/* ]]&gt; */&lt;/script&gt;\nFormat settings, CABAC                   : Yes\nFormat settings, ReFrames                : 3 frames\nCodec ID                                 : V_MPEG4/ISO/AVC\nDuration                                 : 57mn 36s\nBit rate mode                            : Variable\nBit rate                                 : 2 971 Kbps\nMaximum bit rate                         : 20.0 Mbps\nWidth                                    : 1 280 pixels\nHeight                                   : 720 pixels\nDisplay aspect ratio                     : 16:9\nFrame rate mode                          : Constant\nFrame rate                               : 60.000 fps\nOriginal frame rate                      : 59.940 fps\nColor space                              : YUV\nChroma subsampling                       : 4:2:0\nBit depth                                : 8 bits\nScan type                                : Progressive\nBits/(Pixel*Frame)                       : 0.054\nStream size                              : 1.20 GiB (94%)\nTitle                                    : HBO: Bradley vs. Alexander\nWriting library                          : x264 core 112 r1867 22bfd31\nEncoding settings                        : cabac=1 / ref=3 / deblock=1:0:0 / analyse=0x1:0x111 / me=hex / subme=7 / psy=1 / psy_rd=1.00:0.00 / mixed_ref=1 / me_range=16 / chroma_me=1 / trellis=1 / 8x8dct=0 / cqm=0 / deadzone=21,11 / fast_pskip=1 / chroma_qp_offset=-2 / threads=6 / sliced_threads=0 / nr=0 / decimate=1 / interlaced=0 / constrained_intra=0 / bframes=3 / b_pyramid=1 / b_adapt=1 / b_bias=0 / direct=1 / weightb=1 / open_gop=0 / weightp=2 / keyint=60 / keyint_min=6 / scenecut=40 / intra_refresh=0 / rc_lookahead=40 / rc=crf / mbtree=1 / crf=28.0 / qcomp=0.60 / qpmin=0 / qpmax=51 / qpstep=4 / vbv_maxrate=20000 / vbv_bufsize=20000 / crf_max=0.0 / nal_hrd=vbr / ip_ratio=1.40 / aq=1:1.00\nDefault                                  : Yes\nForced                                   : No\nColor primaries                          : BT.709\nTransfer characteristics                 : BT.709\nMatrix coefficients                      : BT.709\n\nAudio\nID                                       : 2\nFormat                                   : AC-3\nFormat/Info                              : Audio Coding 3\nMode extension                           : CM (complete main)\nFormat settings, Endianness              : Big\nCodec ID                                 : A_AC3\nDuration                                 : 57mn 36s\nBit rate mode                            : Constant\nBit rate                                 : 128 Kbps\nChannel(s)                               : 2 channels\nChannel positions                        : Front: L R\nSampling rate                            : 48.0 KHz\nBit depth                                : 16 bits\nCompression mode                         : Lossy\nStream size                              : 52.7 MiB (4%)\nLanguage                                 : English\nDefault                                  : Yes\nForced                                   : No\n\n\n\n\n\n &lt;a href=&quot;\nhttp://imageshack.com/a/img802/7991/bx67.jpg&quot; rel=&quot;nofollow&quot; target=&quot;_NEW&quot;&gt;\nhttp://imageshack.com/a/img802/7991/bx67.jpg&lt;/a&gt; &lt;a href=&quot;\nhttp://imageshack.com/a/img38/1628/qdq3.jpg&quot; rel=&quot;nofollow&quot; target=&quot;_NEW&quot;&gt;\nhttp://imageshack.com/a/img38/1628/qdq3.jpg&lt;/a&gt; &lt;a href=&quot;\nhttp://imageshack.com/a/img203/9985/7ixd.jpg&quot; rel=&quot;nofollow&quot; target=&quot;_NEW&quot;&gt;\nhttp://imageshack.com/a/img203/9985/7ixd.jpg&lt;/a&gt;","torrent":{"xt":"urn:btih:0998ee41a01ee3e57bd16d2935a3b7afb83f2804","amp;dn":"Timothy+Bradley+vs.+Devon+Alexander%28HBO%29%28720PMKV%29-desspratt-","amp;tr":["udp%3A%2F%2Ftracker.openbittorrent.com%3A80","udp%3A%2F%2Fopen.demonii.com%3A1337","udp%3A%2F%2Ftracker.coppersurfer.tk%3A6969","udp%3A%2F%2Fexodus.desync.com%3A6969"],"infoHash":"0998ee41a01ee3e57bd16d2935a3b7afb83f2804","infoHashBuffer":{"type":"Buffer","data":[9,152,238,65,160,30,227,229,123,209,109,41,53,163,183,175,184,63,40,4]},"announce":[],"urlList":[]}}